<?xml version="1.0" encoding="UTF-8"?>
<svg width="30px" height="26px" viewBox="0 0 30 26" version="1.1" xmlns="http://www.w3.org/2000/svg" xmlns:xlink="http://www.w3.org/1999/xlink">
    <!-- Generator: Sketch 54.1 (76490) - https://sketchapp.com -->
    <title>iconfinder_volume-high_171275</title>
    <desc>Created with Sketch.</desc>
    <g id="z" stroke="none" stroke-width="1" fill="none" fill-rule="evenodd">
        <g id="Listing" transform="translate(-745.000000, -1279.000000)" fill="#2672DE">
            <g id="iconfinder_volume-high_171275" transform="translate(745.000000, 1279.000000)">
                <path d="M13.125,-2.30926389e-14 C12.3928125,-2.30926389e-14 11.8940625,0.402244898 11.25,0.933061224 L5.625,5.51020408 L1.875,5.51020408 C0.84375,5.51020408 0,6.33673469 0,7.34693878 L0,18.3673469 C0,19.377551 0.84375,20.2040816 1.875,20.2040816 L5.625,20.2040816 L11.25,24.7812245 C11.895,25.3129592 12.3928125,25.7142857 13.125,25.7142857 C14.2678125,25.7142857 15,24.8106122 15,23.877551 L15,1.83673469 C15,0.903673469 14.2678125,-2.30926389e-14 13.125,-2.30926389e-14 Z M11.25,20.0057143 L6.9796875,16.5306122 L3.75,16.5306122 L3.75,9.18367347 L6.9796875,9.18367347 L11.25,5.70857143 L11.25,20.0057143 Z M18.75,3.67346939 C17.578125,3.67346939 16.875,4.635 16.875,5.51020408 C16.875,6.81612245 18.75,8.06418367 18.75,12.8571429 C18.75,17.650102 16.875,18.8981633 16.875,20.2040816 C16.875,21.0792857 17.578125,22.0408163 18.75,22.0408163 C19.7025,22.0408163 20.2734375,21.5384694 20.8884375,20.2040816 C22.040625,17.7052041 22.5,15.3110204 22.5,12.8571429 C22.5,10.4032653 22.040625,8.00908163 20.8884375,5.51020408 C20.2734375,4.17581633 19.7025,3.67346939 18.75,3.67346939 Z M27.324375,1.83673469 C26.53875,0.210306122 25.79625,-2.30926389e-14 25.1371875,-2.30926389e-14 C24.0234375,-2.30926389e-14 23.2621875,0.918367347 23.2621875,1.83673469 C23.2621875,3.3722449 26.25,5.99785714 26.25,12.8571429 C26.25,19.7164286 23.26125,22.3420408 23.26125,23.877551 C23.26125,24.7959184 24.0234375,25.7142857 25.13625,25.7142857 C25.7953125,25.7142857 26.5378125,25.5039796 27.3234375,23.877551 C28.1840625,22.0986735 30,18.5106122 30,12.8571429 C30,7.20367347 28.1840625,3.61653061 27.324375,1.83673469 Z" id="Shape"></path>
            </g>
        </g>
    </g>
</svg>