<svg id="Layer_1" data-name="Layer 1" xmlns="http://www.w3.org/2000/svg" viewBox="0 0 98 97"><defs><style>.cls-1{fill:#1a4480;}</style></defs><title>browse-icon</title><g id="full-comps"><g id="Home-1"><g id="topics-copy"><g id="Group-3-Copy-5"><g id="noun_Files_561032" data-name="noun Files 561032"><g id="Group"><path id="Shape" class="cls-1" d="M76.6,97H21.4a6.06,6.06,0,0,1-6.1-6.1V24.2a6.19,6.19,0,0,1,6.1-6.1H76.5a6.06,6.06,0,0,1,6.1,6.1V90.9A6,6,0,0,1,76.6,97ZM21.4,24.2V90.9H76.5V24.2Z"/><path id="Path" class="cls-1" d="M45.9,42.4H36.7a3,3,0,1,1,0-6h9.2a3,3,0,1,1,0,6Z"/><path id="Path-2" data-name="Path" class="cls-1" d="M61.2,51.5H36.8a3,3,0,1,1,0-6H61.3a3.1,3.1,0,0,1,3.1,3A3.19,3.19,0,0,1,61.2,51.5Z"/><path id="Path-3" data-name="Path" class="cls-1" d="M61.2,63.7H36.8a3,3,0,1,1,0-6H61.3a3.1,3.1,0,0,1,3.1,3A3.19,3.19,0,0,1,61.2,63.7Z"/><path id="Path-4" data-name="Path" class="cls-1" d="M61.2,75.8H36.8a3,3,0,1,1,0-6H61.3a3.1,3.1,0,0,1,3.1,3A3.19,3.19,0,0,1,61.2,75.8Z"/><path id="Path-5" data-name="Path" class="cls-1" d="M9.2,78.8H6.1A5.93,5.93,0,0,1,0,72.7V6.1A6.12,6.12,0,0,1,6.1,0H61.2a6.06,6.06,0,0,1,6.1,6.1V21.3a3,3,0,0,1-3.1,3,3.1,3.1,0,0,1-3.1-3V6.1H6.1V72.8H9.2a3,3,0,1,1,0,6Z"/><path id="Path-6" data-name="Path" class="cls-1" d="M91.9,84.9H79.6a3,3,0,1,1,0-6H91.8V12.1H73.5a3.1,3.1,0,0,1-3.1-3,3.1,3.1,0,0,1,3.1-3H91.9A6.06,6.06,0,0,1,98,12.2V78.9A6.17,6.17,0,0,1,91.9,84.9Z"/></g></g></g></g></g></g></svg>