<svg id="Layer_1" data-name="Layer 1" xmlns="http://www.w3.org/2000/svg" viewBox="0 0 79.02 84"><defs><style>.cls-1{fill:#1a4480;}</style></defs><title>funding-opportunities-icon</title><g id="full-comps"><g id="Home-1"><g id="topics-copy"><g id="Group-3-Copy-2"><g id="noun_funds_1602605" data-name="noun funds 1602605"><g id="Group"><path id="Shape" class="cls-1" d="M0,2V82a2.15,2.15,0,0,0,2,2H60a2.15,2.15,0,0,0,2-2V70.84l12.6,12.6c.7.8,3.1.8,3.9,0a3.88,3.88,0,0,0,0-3.9L65.6,66.74c3.4-4,4.4-8.1,4.4-13.7a23,23,0,0,0-8-17.4V20a1.82,1.82,0,0,0-.6-1.4l-18-18A2,2,0,0,0,42,0H22.8c-1,0-2,2-1.9,3.1s1,3,2.1,2.9H37V21a3.68,3.68,0,0,0,4,4H56v6.8C52.7,30,51,30,47,30a23,23,0,0,0-16.5,7,24.32,24.32,0,0,0-3.1,4,21.42,21.42,0,0,0-2.8,7,14.15,14.15,0,0,0-.5,4v1a23.49,23.49,0,0,0,.8,6,27.4,27.4,0,0,0,1.5,4,24.12,24.12,0,0,0,5.2,7,72.49,72.49,0,0,0,6.1,4,22.63,22.63,0,0,0,9.4,2c4,0,5.7,0,9-1.8V78H6V6h9c1.1,0,2-1.9,2-3s-1-3-2-3H1.8A2,2,0,0,0,0,2Zm43,6.8L54.2,19H43ZM65,53A18,18,0,1,1,47,35,17.93,17.93,0,0,1,65,53ZM46.8,39.94a2,2,0,0,0-1.8,2v1.2a7,7,0,0,0-2.9,1.3,5.7,5.7,0,0,0-2.1,4.5,5.17,5.17,0,0,0,1.3,3.3,8.5,8.5,0,0,0,2.3,1.7,10.92,10.92,0,0,0,3,1,12.94,12.94,0,0,1,2,.6,2.42,2.42,0,0,1,1.1.8.86.86,0,0,1,.3.6,1.49,1.49,0,0,1-.6,1.3,3.81,3.81,0,0,1-2.4.7,3.74,3.74,0,0,1-2.6-.9,1.68,1.68,0,0,1-.6-.8,2,2,0,1,0-3.7,1.3,5.8,5.8,0,0,0,1.5,2.2,7.32,7.32,0,0,0,3.4,1.8v1.2a2,2,0,0,0,2,2,2.07,2.07,0,0,0,2-2v-1.2a7,7,0,0,0,2.9-1.3,5.65,5.65,0,0,0,2.1-4.4,5.17,5.17,0,0,0-1.3-3.3,8.5,8.5,0,0,0-2.3-1.7,10.92,10.92,0,0,0-3-1,9,9,0,0,1-2-.7,2.42,2.42,0,0,1-1.1-.8.71.71,0,0,1-.3-.6,1.49,1.49,0,0,1,.6-1.3,3.81,3.81,0,0,1,2.4-.7,3.74,3.74,0,0,1,2.6.9,1.68,1.68,0,0,1,.6.8,2,2,0,1,0,3.7-1.3,5.8,5.8,0,0,0-1.5-2.2,7.32,7.32,0,0,0-3.4-1.8v-1.2a2.12,2.12,0,0,0-2.2-2Z" transform="translate(0 -0.04)"/><path id="Rectangle-Copy-34" class="cls-1" d="M13.5,63H28l4,5H13.5a2.48,2.48,0,0,1-2.5-2.5h0A2.48,2.48,0,0,1,13.5,63Z" transform="translate(0 -0.04)"/><path id="Rectangle-Copy-35" class="cls-1" d="M13.5,49H26v5H13.5a2.48,2.48,0,0,1-2.5-2.5h0A2.48,2.48,0,0,1,13.5,49Z" transform="translate(0 -0.04)"/><path id="Rectangle-Copy-36" class="cls-1" d="M13.5,36H35l-6,5H13.5a2.48,2.48,0,0,1-2.5-2.5h0A2.48,2.48,0,0,1,13.5,36Z" transform="translate(0 -0.04)"/></g></g></g></g></g></g></svg>