<svg id="Layer_1" data-name="Layer 1" xmlns="http://www.w3.org/2000/svg" viewBox="0 0 92 72"><defs><style>.cls-1{fill:#1a4480;}</style></defs><title>news-icon</title><g id="full-comps"><g id="Home-1"><g id="topics-copy"><g id="Group-3-Copy-3"><g id="noun_news_968052" data-name="noun news 968052"><g id="Group"><path id="Shape" class="cls-1" d="M19.8,0A2,2,0,0,0,18,2V13H2a2,2,0,0,0-2,2v46.5C0,67.64,5.1,72,11,72H81.6A10.29,10.29,0,0,0,92,61.54V2a2,2,0,0,0-2-2H19.8ZM24,6H86v55.5c0,4.1-.4,4.5-4.4,4.5H21.5a1.9,1.9,0,0,0,1.5-.8,6.41,6.41,0,0,0,1-3.7Zm8.8,7A2,2,0,0,0,31,15V33a2,2,0,0,0,2,2H77a2,2,0,0,0,2-2V15a2,2,0,0,0-2-2H32.8ZM6,19H18v40.8A6,6,0,0,1,12.5,66H12a5.88,5.88,0,0,1-6-6.2Zm31,0H73V29H37ZM32.8,41a2.11,2.11,0,0,0-1.7,1.6,4.4,4.4,0,0,0,.1,3A2.09,2.09,0,0,0,33,47H77a2.22,2.22,0,0,0,1.8-1.5,3.9,3.9,0,0,0,0-3c-.4-.9-1-1.5-1.8-1.5H32.8Zm0,12a2.11,2.11,0,0,0-1.7,1.6,4.4,4.4,0,0,0,.1,3A2.09,2.09,0,0,0,33,59H77a2.22,2.22,0,0,0,1.8-1.5,3.9,3.9,0,0,0,0-3c-.4-.9-1-1.5-1.8-1.5H32.8Z" transform="translate(0 -0.04)"/></g></g></g></g></g></g></svg>