<svg id="Layer_1" data-name="Layer 1" xmlns="http://www.w3.org/2000/svg" viewBox="0 0 87.1 83.4"><defs><style>.cls-1{fill:#1a4480;}</style></defs><title>register-icon</title><g id="full-comps"><g id="Home-1"><g id="topics-copy"><g id="Group-3-Copy-4"><g id="noun_event_2080340" data-name="noun event 2080340"><g id="Group"><path id="Shape" class="cls-1" d="M77.7,7H65V3.4a3.08,3.08,0,0,0-3-3,3,3,0,0,0-3,3V7H29.1V3.4a3,3,0,1,0-6,0V7H10.3A9.82,9.82,0,0,0,.5,16.8V74a9.82,9.82,0,0,0,9.8,9.8H77.8A9.82,9.82,0,0,0,87.6,74V16.7A10,10,0,0,0,77.7,7Zm3.8,66.9a3.78,3.78,0,0,1-3.8,3.7H10.3a3.78,3.78,0,0,1-3.8-3.7V35.2H81.4l.1,38.7Zm0-44.9H6.5V16.7A3.78,3.78,0,0,1,10.3,13H23v3.7a3,3,0,1,0,6,0V13H58.8v3.7a3,3,0,1,0,6,0V13H77.5a3.78,3.78,0,0,1,3.8,3.7L81.5,29Z" transform="translate(-0.5 -0.4)"/><path id="Path" class="cls-1" d="M38.8,67.7a2.92,2.92,0,0,0,4.4,0L59.7,50.2a2.94,2.94,0,0,0-.2-4.3,3,3,0,0,0-4.3.2L41,61.3l-7.6-8.1a3,3,0,0,0-4.5,4.1Z" transform="translate(-0.5 -0.4)"/></g></g></g></g></g></g></svg>